<svg width="166" height="169" xmlns="http://www.w3.org/2000/svg" xmlns:xlink="http://www.w3.org/1999/xlink" overflow="hidden"><g transform="translate(-430 -480)"><g><g><g><path d="M433.5 519.5 513.5 554.194 513.5 646.5 433.5 611.806Z" stroke="#172C51" stroke-width="1.33333" stroke-miterlimit="8" fill="#CB3C32" fill-rule="evenodd"/><path d="M0 81 35.1272 0 127 0 91.8728 81Z" stroke="#172C51" stroke-width="1.33333" stroke-miterlimit="8" fill="#9557B2" fill-rule="evenodd" transform="matrix(1.83697e-16 1 1 -1.83697e-16 513.5 519.5)"/><path d="M433.5 518.5 513.5 482.5 593.5 518.5 513.5 554.5Z" stroke="#172C51" stroke-width="1.33333" stroke-miterlimit="8" fill="#379825" fill-rule="evenodd"/></g></g></g><path d="M533.5 581.5C533.5 571.007 542.231 562.5 553 562.5 563.77 562.5 572.5 571.007 572.5 581.5 572.5 591.993 563.77 600.5 553 600.5 542.231 600.5 533.5 591.993 533.5 581.5Z" stroke="#172C51" stroke-width="1.33333" stroke-miterlimit="8" fill="#00B050" fill-rule="evenodd"/><path d="M539.5 577.556 549.556 577.556 549.556 567.5 556.444 567.5 556.444 577.556 566.5 577.556 566.5 585.444 556.444 585.444 556.444 595.5 549.556 595.5 549.556 585.444 539.5 585.444Z" stroke="#172C51" stroke-width="1.33333" stroke-miterlimit="8" fill="#FFFFFF" fill-rule="evenodd"/></g></svg>