<svg width="84" height="99" xmlns="http://www.w3.org/2000/svg" xmlns:xlink="http://www.w3.org/1999/xlink" overflow="hidden"><g transform="translate(-86 -206)"><rect x="88" y="209" width="55" height="73" stroke="#D9D9D9" stroke-width="4" stroke-miterlimit="8" fill="#FFFFFF"/><rect x="125" y="209" width="17" height="17" stroke="#D9D9D9" stroke-width="4" stroke-miterlimit="8" fill="#FFFFFF"/><path d="M126 209 143.28 226.28" stroke="#D9D9D9" stroke-width="4" stroke-miterlimit="8" fill="none" fill-rule="evenodd"/><path d="M101.5 237.667C101.5 237.022 102.022 236.5 102.667 236.5L129.333 236.5C129.978 236.5 130.5 237.022 130.5 237.667L130.5 242.333C130.5 242.978 129.978 243.5 129.333 243.5L102.667 243.5C102.022 243.5 101.5 242.978 101.5 242.333Z" stroke="#172C51" stroke-width="1.33333" stroke-miterlimit="8" fill="#00B0AF" fill-rule="evenodd"/><path d="M101.5 252.667C101.5 252.022 102.022 251.5 102.667 251.5L129.333 251.5C129.978 251.5 130.5 252.022 130.5 252.667L130.5 257.333C130.5 257.978 129.978 258.5 129.333 258.5L102.667 258.5C102.022 258.5 101.5 257.978 101.5 257.333Z" stroke="#172C51" stroke-width="1.33333" stroke-miterlimit="8" fill="#00B0AF" fill-rule="evenodd"/><path d="M101.5 267.667C101.5 267.022 102.022 266.5 102.667 266.5L120.333 266.5C120.978 266.5 121.5 267.022 121.5 267.667L121.5 272.333C121.5 272.978 120.978 273.5 120.333 273.5L102.667 273.5C102.022 273.5 101.5 272.978 101.5 272.333Z" stroke="#172C51" stroke-width="1.33333" stroke-miterlimit="8" fill="#00B0AF" fill-rule="evenodd"/><path d="M135.5 287C135.5 277.887 143.111 270.5 152.5 270.5 161.889 270.5 169.5 277.887 169.5 287 169.5 296.113 161.889 303.5 152.5 303.5 143.111 303.5 135.5 296.113 135.5 287Z" stroke="#172C51" stroke-width="1.33333" stroke-miterlimit="8" fill="#00B050" fill-rule="evenodd"/><path d="M140.5 283.439 149.439 283.439 149.439 274.5 155.561 274.5 155.561 283.439 164.5 283.439 164.5 289.561 155.561 289.561 155.561 298.5 149.439 298.5 149.439 289.561 140.5 289.561Z" stroke="#172C51" stroke-width="1.33333" stroke-miterlimit="8" fill="#FFFFFF" fill-rule="evenodd"/></g></svg>